<?xml version="1.0" encoding="iso-8859-1"?>
<!DOCTYPE svg PUBLIC "-//W3C//DTD SVG 1.1//EN" "http://www.w3.org/Graphics/SVG/1.1/DTD/svg11.dtd">
<svg version="1.1" xmlns="http://www.w3.org/2000/svg" xmlns:xlink="http://www.w3.org/1999/xlink" x="0px" y="0px"
	 viewBox="0 0 476.904 476.904" style="enable-background:new 0 0 476.904 476.904;" xml:space="preserve">
<path fill="#da5a47" d="M423.639,348.228c5.032-6.413,8.044-14.482,8.044-23.247v-13.818c0-31.472-12.131-61.181-34.158-83.652
	c-20.157-20.564-46.529-32.962-74.947-35.405v-4.742c0-4.418-3.582-8-8-8h-38.063c-4.418,0-8,3.582-8,8v4.289H241.37V168.25h11.031
	c4.418,0,8-3.582,8-8v-38.063c0-4.418-3.582-8-8-8H241.37V92.125h11.031c4.418,0,8-3.582,8-8V46.063c0-4.418-3.582-8-8-8H241.37V8
	c0-4.418-3.582-8-8-8H43.057c-4.418,0-8,3.582-8,8v316.98c0,9.871,3.814,18.864,10.04,25.596
	c-25.06,9.062-43.02,33.087-43.02,61.234c0,35.893,29.201,65.094,65.094,65.094c24.582,0,46.02-13.7,57.094-33.863
	c11.074,20.163,32.512,33.863,57.094,33.863c24.582,0,46.02-13.7,57.094-33.863c11.074,20.163,32.512,33.863,57.094,33.863
	c24.582,0,46.02-13.7,57.094-33.863c11.074,20.163,32.512,33.863,57.094,33.863c35.893,0,65.094-29.201,65.094-65.094
	C474.827,380.691,452.87,354.616,423.639,348.228z M319.208,403.811c-3.336-9.87-12.666-16.979-23.662-16.979
	c-10.996,0-20.326,7.109-23.662,16.979h-24.77c3.833-23.277,24.086-41.094,48.432-41.094s44.599,17.817,48.432,41.094H319.208z
	 M205.02,403.811c-3.336-9.87-12.666-16.979-23.662-16.979s-20.326,7.109-23.662,16.979h-24.769
	c3.833-23.277,24.086-41.094,48.432-41.094s44.599,17.817,48.432,41.094H205.02z M124.265,380.579
	c-3.724-6.781-8.628-12.82-14.423-17.863h28.845C132.893,367.76,127.989,373.799,124.265,380.579z M224.03,362.717h28.845
	c-5.795,5.043-10.699,11.082-14.423,17.863C234.728,373.799,229.824,367.76,224.03,362.717z M338.217,362.717h28.846
	c-5.795,5.043-10.699,11.082-14.423,17.863C348.916,373.799,344.011,367.76,338.217,362.717z M306.577,195.362v54.121h-22.063
	v-49.813c0-0.007,0.001-0.013,0.001-0.019s-0.001-0.013-0.001-0.019v-4.27H306.577z M244.401,152.25h-60.125v-22.063h49.055
	c0.013,0,0.026,0.002,0.039,0.002s0.026-0.002,0.039-0.002h10.993V152.25z M244.401,76.125h-60.125V54.063h49.074
	c0.007,0,0.013,0.001,0.019,0.001s0.013-0.001,0.019-0.001h11.012V76.125z M225.37,16v22.063h-41.12
	c-0.272-4.171-3.733-7.474-7.973-7.474c-4.418,0-8,3.582-8,8v7.474v38.063v8.73c0,4.418,3.582,8,8,8s8-3.582,8-8v-0.73h41.094
	v22.063h-41.094v-0.102c0-4.418-3.582-8-8-8s-8,3.582-8,8v8.102v38.063v8.103c0,4.418,3.582,8,8,8s8-3.582,8-8v-0.103h41.094v31.401
	c0,4.418,3.582,8,8,8h35.145v41.832h-0.102c-4.418,0-8,3.582-8,8s3.582,8,8,8h8.102h38.063h8.103c4.418,0,8-3.582,8-8s-3.582-8-8-8
	h-0.103v-41.305c49.402,5.011,88.916,45.443,92.791,94.984H110.452c-4.418,0-8,3.582-8,8s3.582,8,8,8h305.23v5.818
	c0,11.985-9.751,21.736-21.736,21.736H72.793c-11.985,0-21.736-9.751-21.736-21.736v-5.818h8.195c4.418,0,8-3.582,8-8s-3.582-8-8-8
	h-8.195v-20.725h49.094c4.418,0,8-3.582,8-8V100.162c0-33.183-24.964-60.626-57.094-64.584V16H225.37z M51.057,51.73
	c23.277,3.833,41.094,24.086,41.094,48.432v166.275H51.057V51.73z M67.171,460.904c-27.07,0-49.094-22.023-49.094-49.094
	s22.023-49.094,49.094-49.094c24.346,0,44.599,17.817,48.432,41.094h-24.77c-3.336-9.87-12.666-16.979-23.662-16.979
	c-13.795,0-24.979,11.183-24.979,24.979s11.183,24.979,24.979,24.979c10.996,0,20.326-7.108,23.662-16.978h24.77
	C111.77,443.088,91.516,460.904,67.171,460.904z M181.358,460.904c-24.346,0-44.599-17.817-48.432-41.094h24.77
	c3.336,9.87,12.666,16.978,23.662,16.978s20.326-7.108,23.662-16.978h24.77C225.957,443.088,205.704,460.904,181.358,460.904z
	 M295.546,460.904c-24.346,0-44.599-17.817-48.432-41.094h24.77c3.336,9.87,12.666,16.978,23.662,16.978
	c10.996,0,20.326-7.108,23.662-16.978h24.77C340.145,443.088,319.891,460.904,295.546,460.904z M409.733,460.904
	c-24.346,0-44.599-17.817-48.432-41.094h24.77c3.336,9.87,12.666,16.978,23.662,16.978c13.795,0,24.979-11.183,24.979-24.979
	s-11.183-24.979-24.979-24.979c-10.996,0-20.326,7.109-23.662,16.979h-24.77c3.833-23.277,24.086-41.094,48.432-41.094
	c27.07,0,49.094,22.023,49.094,49.094S436.804,460.904,409.733,460.904z"/>
</svg>
